M48
; DRILL file {KiCad 5.1.9-73d0e3b20d~88~ubuntu20.04.1} date Mon Jan  4 20:03:25 2021
; FORMAT={-:-/ absolute / inch / decimal}
; #@! TF.CreationDate,2021-01-04T20:03:25+01:00
; #@! TF.GenerationSoftware,Kicad,Pcbnew,5.1.9-73d0e3b20d~88~ubuntu20.04.1
FMAT,2
INCH
T1C0.0394
T2C0.0433
T3C0.0591
T4C0.1575
%
G90
G05
T1
X5.4Y-5.05
X5.4Y-5.15
X5.4Y-5.25
X5.4Y-5.35
X5.45Y-4.25
X5.45Y-5.6
X5.55Y-5.75
X5.65Y-5.75
X5.7Y-5.05
X5.7Y-5.15
X5.7Y-5.25
X5.7Y-5.35
X5.75Y-5.75
X5.85Y-4.25
X5.9Y-4.6
X5.9Y-4.7
X5.9Y-4.95
X5.9Y-5.35
X5.9Y-5.6
T2
X5.4Y-4.4941
X5.4Y-4.75
X5.5772Y-4.4941
X5.5772Y-4.75
T3
X5.6Y-2.95
X5.6Y-3.7567
T4
X5.1Y-3.0
X5.1Y-6.05
X6.1Y-3.0
X6.1Y-6.05
T0
M30
