%TF.GenerationSoftware,KiCad,Pcbnew,5.1.9-73d0e3b20d~88~ubuntu20.04.1*%
%TF.CreationDate,2021-01-03T21:09:43+01:00*%
%TF.ProjectId,placa_emisor_attiny_tres,706c6163-615f-4656-9d69-736f725f6174,rev?*%
%TF.SameCoordinates,Original*%
%TF.FileFunction,Copper,L2,Bot*%
%TF.FilePolarity,Positive*%
%FSLAX46Y46*%
G04 Gerber Fmt 4.6, Leading zero omitted, Abs format (unit mm)*
G04 Created by KiCad (PCBNEW 5.1.9-73d0e3b20d~88~ubuntu20.04.1) date 2021-01-03 21:09:43*
%MOMM*%
%LPD*%
G01*
G04 APERTURE LIST*
%TA.AperFunction,ComponentPad*%
%ADD10O,1.700000X1.700000*%
%TD*%
%TA.AperFunction,ComponentPad*%
%ADD11R,1.700000X1.700000*%
%TD*%
%TA.AperFunction,ComponentPad*%
%ADD12R,3.000000X3.000000*%
%TD*%
%TA.AperFunction,ComponentPad*%
%ADD13C,3.000000*%
%TD*%
%TA.AperFunction,ComponentPad*%
%ADD14C,1.800000*%
%TD*%
%TA.AperFunction,ComponentPad*%
%ADD15R,1.800000X1.800000*%
%TD*%
%TA.AperFunction,ComponentPad*%
%ADD16C,1.600000*%
%TD*%
%TA.AperFunction,ComponentPad*%
%ADD17O,1.600000X1.600000*%
%TD*%
%TA.AperFunction,ComponentPad*%
%ADD18C,2.000000*%
%TD*%
%TA.AperFunction,ComponentPad*%
%ADD19O,2.400000X1.600000*%
%TD*%
%TA.AperFunction,ComponentPad*%
%ADD20R,2.400000X1.600000*%
%TD*%
%TA.AperFunction,ViaPad*%
%ADD21C,3.400000*%
%TD*%
%TA.AperFunction,ViaPad*%
%ADD22C,1.524000*%
%TD*%
%TA.AperFunction,Conductor*%
%ADD23C,1.000000*%
%TD*%
%TA.AperFunction,Conductor*%
%ADD24C,1.200000*%
%TD*%
%TA.AperFunction,Conductor*%
%ADD25C,1.500000*%
%TD*%
G04 APERTURE END LIST*
D10*
%TO.P,J1,3*%
%TO.N,GND*%
X140970000Y-146050000D03*
%TO.P,J1,2*%
%TO.N,VCC*%
X143510000Y-146050000D03*
D11*
%TO.P,J1,1*%
%TO.N,/S*%
X146050000Y-146050000D03*
%TD*%
D12*
%TO.P,BT1,1*%
%TO.N,VCC*%
X142240000Y-74930000D03*
D13*
%TO.P,BT1,2*%
%TO.N,GND*%
X142240000Y-95420000D03*
%TD*%
D14*
%TO.P,D1,2*%
%TO.N,Net-(D1-Pad2)*%
X149860000Y-116840000D03*
D15*
%TO.P,D1,1*%
%TO.N,Net-(D1-Pad1)*%
X149860000Y-119380000D03*
%TD*%
D16*
%TO.P,R1,1*%
%TO.N,GND*%
X148590000Y-107950000D03*
D17*
%TO.P,R1,2*%
%TO.N,Net-(R1-Pad2)*%
X138430000Y-107950000D03*
%TD*%
D16*
%TO.P,R2,1*%
%TO.N,GND*%
X149860000Y-135890000D03*
D17*
%TO.P,R2,2*%
%TO.N,Net-(D1-Pad1)*%
X149860000Y-125730000D03*
%TD*%
D18*
%TO.P,SW1,1*%
%TO.N,VCC*%
X137160000Y-114150000D03*
%TO.P,SW1,2*%
%TO.N,Net-(R1-Pad2)*%
X141660000Y-114150000D03*
%TO.P,SW1,1*%
%TO.N,VCC*%
X137160000Y-120650000D03*
%TO.P,SW1,2*%
%TO.N,Net-(R1-Pad2)*%
X141660000Y-120650000D03*
%TD*%
D19*
%TO.P,U1,8*%
%TO.N,VCC*%
X137160000Y-135890000D03*
%TO.P,U1,4*%
%TO.N,GND*%
X144780000Y-128270000D03*
%TO.P,U1,7*%
%TO.N,Net-(D1-Pad2)*%
X137160000Y-133350000D03*
%TO.P,U1,3*%
%TO.N,/S*%
X144780000Y-130810000D03*
%TO.P,U1,6*%
%TO.N,Net-(U1-Pad6)*%
X137160000Y-130810000D03*
%TO.P,U1,2*%
%TO.N,Net-(U1-Pad2)*%
X144780000Y-133350000D03*
%TO.P,U1,5*%
%TO.N,Net-(R1-Pad2)*%
X137160000Y-128270000D03*
D20*
%TO.P,U1,1*%
%TO.N,Net-(U1-Pad1)*%
X144780000Y-135890000D03*
%TD*%
D21*
%TO.N,*%
X129540000Y-76200000D03*
X154940000Y-76200000D03*
X154940000Y-153670000D03*
X129540000Y-153670000D03*
D22*
%TO.N,GND*%
X138430000Y-142240000D03*
X149860000Y-142240000D03*
%TD*%
D23*
%TO.N,GND*%
X149860000Y-142240000D02*
X149860000Y-142240000D01*
D24*
X142240000Y-95420000D02*
X148590000Y-101770000D01*
X148590000Y-101770000D02*
X148590000Y-107950000D01*
X148590000Y-107950000D02*
X154305000Y-113665000D01*
X154305000Y-113665000D02*
X154305000Y-132080000D01*
X154305000Y-132080000D02*
X151765000Y-132080000D01*
X147955000Y-128270000D02*
X144780000Y-128270000D01*
X151765000Y-132080000D02*
X147955000Y-128270000D01*
X151765000Y-133985000D02*
X149860000Y-135890000D01*
X151765000Y-132080000D02*
X151765000Y-133985000D01*
X149860000Y-142240000D02*
X149860000Y-135890000D01*
X138430000Y-143510000D02*
X140970000Y-146050000D01*
X138430000Y-142240000D02*
X138430000Y-143510000D01*
X140970000Y-146050000D02*
X140970000Y-155575000D01*
D23*
%TO.N,VCC*%
X142240000Y-74930000D02*
X134620000Y-74930000D01*
X134770000Y-114150000D02*
X134620000Y-114300000D01*
X137160000Y-114150000D02*
X134770000Y-114150000D01*
X134620000Y-74930000D02*
X134620000Y-114300000D01*
X137160000Y-120650000D02*
X134620000Y-120650000D01*
X134620000Y-120650000D02*
X134620000Y-139700000D01*
X134620000Y-114300000D02*
X134620000Y-120650000D01*
X137160000Y-135890000D02*
X137160000Y-139700000D01*
X134620000Y-139700000D02*
X137160000Y-139700000D01*
X143510000Y-140970000D02*
X143510000Y-146050000D01*
X142240000Y-139700000D02*
X143510000Y-140970000D01*
X137160000Y-139700000D02*
X142240000Y-139700000D01*
D25*
X143510000Y-146050000D02*
X143510000Y-154940000D01*
D23*
%TO.N,Net-(D1-Pad1)*%
X149860000Y-125730000D02*
X149860000Y-119380000D01*
%TO.N,Net-(D1-Pad2)*%
X146050000Y-116840000D02*
X149860000Y-116840000D01*
X139700000Y-133350000D02*
X139700000Y-129540000D01*
X146050000Y-123190000D02*
X146050000Y-116840000D01*
X139700000Y-129540000D02*
X146050000Y-123190000D01*
X137160000Y-133350000D02*
X139700000Y-133350000D01*
%TO.N,/S*%
X147320000Y-130810000D02*
X147320000Y-144780000D01*
X147320000Y-144780000D02*
X146050000Y-146050000D01*
X144780000Y-130810000D02*
X147320000Y-130810000D01*
D25*
X146050000Y-146050000D02*
X146050000Y-154940000D01*
D23*
%TO.N,Net-(R1-Pad2)*%
X138430000Y-107950000D02*
X140970000Y-107950000D01*
X141660000Y-108640000D02*
X141660000Y-114150000D01*
X140970000Y-107950000D02*
X141660000Y-108640000D01*
X141660000Y-114150000D02*
X141660000Y-120650000D01*
X141660000Y-123770000D02*
X137160000Y-128270000D01*
X141660000Y-120650000D02*
X141660000Y-123770000D01*
%TD*%
M02*
