M48
; DRILL file {KiCad 5.1.6-c6e7f7d~86~ubuntu18.04.1} date Tue Dec 29 07:44:10 2020
; FORMAT={-:-/ absolute / inch / decimal}
; #@! TF.CreationDate,2020-12-29T07:44:10+01:00
; #@! TF.GenerationSoftware,Kicad,Pcbnew,5.1.6-c6e7f7d~86~ubuntu18.04.1
FMAT,2
INCH
T1C0.0299
T2C0.0315
T3C0.0354
T4C0.0394
T5C0.0433
T6C0.0591
T7C0.1220
%
G90
G05
T1
X4.8Y-2.65
X4.8Y-3.1
T2
X6.15Y-2.65
X6.15Y-3.05
X5.05Y-2.6
X5.05Y-2.9
X5.15Y-2.6
X5.15Y-2.9
X5.25Y-2.6
X5.25Y-2.9
X5.35Y-2.6
X5.35Y-2.9
X5.05Y-3.1
X5.45Y-3.1
T3
X5.7Y-3.1
X5.8Y-3.1
T4
X4.65Y-2.75
X4.65Y-2.85
X4.65Y-2.95
T5
X5.65Y-2.6
X5.65Y-2.7772
X5.9059Y-2.6
X5.9059Y-2.7772
T6
X6.6433Y-2.8
X7.45Y-2.8
T7
X4.35Y-2.3
X4.35Y-3.3
X7.4Y-2.3
X7.4Y-3.3
T0
M30
